<?xml version="1.0" encoding="UTF-8"?>
<svg version="1.1" xmlns="http://www.w3.org/2000/svg" width="1024" height="1024">
<path d="M0 0 C337.92 0 675.84 0 1024 0 C1024 337.92 1024 675.84 1024 1024 C686.08 1024 348.16 1024 0 1024 C0 686.08 0 348.16 0 0 Z " fill="#F8F8F7" transform="translate(0,0)"/>
<path d="M0 0 C2.49714209 2.18114571 4.87251366 4.43119136 7.21875 6.7734375 C7.97671875 7.51980469 8.7346875 8.26617187 9.515625 9.03515625 C28.28062943 28.60899708 33.89966281 52.41209983 33.53515625 78.80859375 C32.73856778 103.55616434 20.86758279 125.39244554 3.44140625 142.5 C-16.7057828 160.353339 -41.40562689 166.09270727 -67.78125 164.7734375 C-91.41238183 162.67492 -111.37789116 151.36007409 -127.78125 134.7734375 C-128.45671875 134.10828125 -129.1321875 133.443125 -129.828125 132.7578125 C-147.09381854 114.54171381 -152.70248337 89.9762195 -152.1328125 65.60546875 C-151.029384 41.11173759 -138.06778689 19.28554949 -120.890625 2.51171875 C-87.30397526 -28.02258669 -34.8419946 -27.89316984 0 0 Z " fill="#D9EAF1" transform="translate(709.78125,430.2265625)"/>
<path d="M0 0 C1.60279192 0.00015914 3.20558896 0.00585476 4.80834961 0.01586914 C5.65038437 0.01728409 6.49241913 0.01869904 7.35997009 0.02015686 C10.06024671 0.02577276 12.76044163 0.03832791 15.46069336 0.05102539 C17.28686404 0.05603834 19.11303602 0.06060161 20.93920898 0.06469727 C25.42556878 0.07574735 29.9118672 0.0930226 34.39819336 0.11352539 C36.97079661 5.14769425 39.34425301 10.18769071 41.43725586 15.44165039 C41.71563797 16.13209442 41.99402008 16.82253845 42.28083801 17.53390503 C42.88271743 19.02750857 43.48314314 20.52169859 44.08224487 22.01641846 C45.7260538 26.11674424 47.381529 30.2123657 49.03491211 34.30883789 C49.38419266 35.1751181 49.73347321 36.04139832 50.09333801 36.93392944 C53.92541925 46.43347053 57.79589242 55.91724674 61.67401123 65.39807129 C62.80195022 68.15601932 63.92847161 70.91454335 65.05493164 73.6730957 C65.77203193 75.42675204 66.4893141 77.18033401 67.20678711 78.93383789 C67.72435577 80.20022095 67.72435577 80.20022095 68.25238037 81.4921875 C70.04043595 85.85354441 71.8555065 90.20136836 73.71118164 94.53442383 C74.08396744 95.40735077 74.45675323 96.28027771 74.84083557 97.17965698 C75.55225915 98.84085424 76.26828792 100.50008926 76.98960876 102.15701294 C79.39819336 107.78229062 79.39819336 107.78229062 79.39819336 111.11352539 C80.05819336 111.11352539 80.71819336 111.11352539 81.39819336 111.11352539 C81.49447021 110.46158203 81.59074707 109.80963867 81.68994141 109.13793945 C82.62590299 105.14114798 84.15559066 101.50641211 85.73022461 97.72290039 C86.07424316 96.88587585 86.41826172 96.04885132 86.77270508 95.1864624 C87.91462996 92.41045392 89.06271686 89.63703614 90.21069336 86.86352539 C91.01221969 84.91776813 91.81323602 82.97180071 92.61376953 81.02563477 C93.87801694 77.95239015 95.14263836 74.87930431 96.40888977 71.80688477 C101.37505528 59.75558416 106.29152552 47.68406538 111.21069336 35.61352539 C114.26839001 28.11155526 117.32946928 20.61099178 120.39819336 13.11352539 C120.68273376 12.41694824 120.96727417 11.72037109 121.26043701 11.00268555 C121.9742219 9.25727276 122.69185854 7.5134364 123.40991211 5.76977539 C123.77947021 4.8706543 124.14902832 3.9715332 124.52978516 3.04516602 C125.39819336 1.11352539 125.39819336 1.11352539 126.39819336 0.11352539 C129.05275529 0.01256975 131.68074512 -0.02618459 134.33569336 -0.01928711 C135.13096436 -0.02024384 135.92623535 -0.02120056 136.74560547 -0.02218628 C138.43025796 -0.02286804 140.11491307 -0.02101404 141.79956055 -0.0168457 C144.38718533 -0.01149736 146.97463652 -0.0167908 149.56225586 -0.02319336 C151.19506874 -0.02253258 152.82788152 -0.02125141 154.46069336 -0.01928711 C155.62942993 -0.02232346 155.62942993 -0.02232346 156.82177734 -0.02542114 C162.28324231 -0.00142565 162.28324231 -0.00142565 163.39819336 1.11352539 C163.49963709 3.34917197 163.52897521 5.58808953 163.53190613 7.82603455 C163.53417168 8.53601595 163.53643724 9.24599735 163.53877145 9.97749335 C163.54513941 12.37433467 163.54428031 14.77111986 163.54345703 17.16796875 C163.54644678 18.87913588 163.54984888 20.59030234 163.55363464 22.3014679 C163.56249753 26.96255493 163.56481371 31.62362363 163.56545043 36.28471828 C163.5663976 40.16914998 163.57007367 44.05357737 163.57362252 47.93800741 C163.58177575 57.09864778 163.58420597 66.2592783 163.58349609 75.41992188 C163.58289504 84.88513113 163.59345041 94.35028343 163.60923976 103.81547827 C163.62229353 111.92841643 163.6276809 120.04133594 163.62704068 128.15428454 C163.62678506 133.00572334 163.62967144 137.85711157 163.64021873 142.70853996 C163.64986346 147.26964269 163.65000398 151.83064612 163.6427021 156.39175224 C163.64165173 158.06958663 163.64404576 159.74742708 163.65006256 161.42525101 C163.65772196 163.70829694 163.65317836 165.99099475 163.64543152 168.27403259 C163.64597629 169.55402602 163.64652105 170.83401945 163.64708233 172.15280056 C163.39819336 175.11352539 163.39819336 175.11352539 161.39819336 177.11352539 C159.09155273 177.37231445 159.09155273 177.37231445 156.24194336 177.37915039 C154.70860352 177.38301758 154.70860352 177.38301758 153.14428711 177.38696289 C152.07307617 177.37922852 151.00186523 177.37149414 149.89819336 177.36352539 C148.82698242 177.37125977 147.75577148 177.37899414 146.65209961 177.38696289 C145.62987305 177.38438477 144.60764648 177.38180664 143.55444336 177.37915039 C142.61407227 177.37689453 141.67370117 177.37463867 140.70483398 177.37231445 C138.39819336 177.11352539 138.39819336 177.11352539 136.39819336 175.11352539 C136.13648033 172.80593681 136.13648033 172.80593681 136.11972046 169.86178589 C136.10855698 168.74836823 136.09739349 167.63495056 136.08589172 166.48779297 C136.08373154 165.26068604 136.08157135 164.0335791 136.0793457 162.76928711 C136.06427727 160.83764206 136.06427727 160.83764206 136.04890442 158.86697388 C136.02153854 155.33002777 136.00643564 151.79312162 135.99347639 148.25609732 C135.97787454 144.5618082 135.95107501 140.86760107 135.92544556 137.17337036 C135.87860542 130.17527259 135.84188674 123.17715948 135.80877268 116.17898476 C135.77058819 108.21289672 135.72116847 100.2468909 135.67078853 92.28087211 C135.56739086 75.89181553 135.47815605 59.50271341 135.39819336 43.11352539 C122.73549284 70.47613804 122.73549284 70.47613804 110.50579834 98.03372192 C101.05518913 119.8404494 91.24237262 141.48236685 81.39819336 163.11352539 C79.41819336 163.11352539 77.43819336 163.11352539 75.39819336 163.11352539 C65.90888757 141.98155802 56.48305641 120.82500627 47.22517395 99.59062195 C43.50863921 91.06874148 39.77403394 82.55478288 36.03805542 74.04141235 C34.86653158 71.37131093 33.69594383 68.70080049 32.52539062 66.03027344 C31.79424927 64.36398742 31.06305072 62.6977265 30.33178711 61.03149414 C30.0083432 60.29310303 29.68489929 59.55471191 29.35165405 58.79394531 C27.5212074 54.62650081 25.65890172 50.47480999 23.77333069 46.33198547 C23.32729524 45.3516953 22.88125978 44.37140512 22.42170811 43.36140919 C22.08394824 42.61960753 21.74618837 41.87780588 21.39819336 41.11352539 C21.39396142 41.80835746 21.38972948 42.50318953 21.3853693 43.21907711 C21.28220335 60.10180997 21.17358699 76.98449798 21.0588541 93.86715603 C21.00350322 102.03137701 20.95001822 110.19560236 20.90087891 118.35986328 C20.85805985 125.47326566 20.81178771 132.58663561 20.76131481 139.69998795 C20.73469544 143.46876358 20.709842 147.2375327 20.68911934 151.00634575 C20.66595903 155.20675322 20.63509167 159.40706924 20.60351562 163.60742188 C20.59776016 164.8661763 20.5920047 166.12493073 20.58607483 167.42182922 C20.57628601 168.55911469 20.56649719 169.69640015 20.55641174 170.8681488 C20.54995919 171.86276343 20.54350664 172.85737806 20.53685856 173.88213253 C20.39819336 176.11352539 20.39819336 176.11352539 19.39819336 177.11352539 C15.75920161 177.36508808 12.10735663 177.29874765 8.46069336 177.30102539 C7.43266602 177.31327148 6.40463867 177.32551758 5.34545898 177.33813477 C4.36383789 177.34006836 3.3822168 177.34200195 2.37084961 177.34399414 C1.4660083 177.34810303 0.56116699 177.35221191 -0.37109375 177.35644531 C-2.60180664 177.11352539 -2.60180664 177.11352539 -4.60180664 175.11352539 C-4.85069561 172.15280056 -4.85069561 172.15280056 -4.8490448 168.27403259 C-4.85145922 167.5624912 -4.85387363 166.8509498 -4.85636121 166.11784655 C-4.86201943 163.72170158 -4.85331928 161.3258207 -4.84472656 158.9296875 C-4.84579891 157.21675036 -4.84773689 155.50381358 -4.85047913 153.7908783 C-4.85533781 149.12988558 -4.84765934 144.46898819 -4.83752608 139.808007 C-4.8287635 134.93975982 -4.83050267 130.07151579 -4.83088684 125.20326233 C-4.82994946 117.02774452 -4.82125514 108.85226377 -4.80761719 100.67675781 C-4.79188565 91.21095406 -4.78661922 81.7451909 -4.78735274 72.27937502 C-4.7879621 63.18964251 -4.78286539 54.0999233 -4.77456093 45.01019478 C-4.77102116 41.13420063 -4.76919669 37.25821118 -4.76866722 33.3822155 C-4.76766608 28.82276093 -4.76158835 24.26334072 -4.75150108 19.70389748 C-4.74856884 18.02564581 -4.74735217 16.34739018 -4.74792862 14.66913605 C-4.74841582 12.38806512 -4.74279828 10.10709192 -4.73551941 7.82603455 C-4.73384356 6.54641814 -4.73216772 5.26680174 -4.73044109 3.94840908 C-4.53888112 -0.27324561 -4.36169803 0.13747642 0 0 Z " fill="#0D0D0D" transform="translate(368.601806640625,412.886474609375)"/>
<path d="M0 0 C0.65719528 -0.00817749 1.31439056 -0.01635498 1.99150085 -0.02478027 C4.18174331 -0.04971898 6.37191958 -0.06619013 8.56225586 -0.08056641 C9.31364775 -0.08589008 10.06503963 -0.09121376 10.83920097 -0.09669876 C14.8322434 -0.12349322 18.8252542 -0.14282984 22.81835938 -0.15722656 C26.09762167 -0.17045362 29.37624498 -0.19808364 32.65527344 -0.23925781 C36.63119304 -0.28917851 40.60654228 -0.31342199 44.58276176 -0.32045364 C46.08516088 -0.32708255 47.58755158 -0.34207985 49.08976936 -0.36634445 C63.53071712 -0.58589399 77.1521877 1.92300637 88.71459961 11.19287109 C89.74584961 11.93537109 90.77709961 12.67787109 91.83959961 13.44287109 C101.16586106 22.36364291 107.17362236 34.78818965 107.91772461 47.72412109 C108.11365241 64.31267523 104.85245578 78.51020253 93.19116211 90.98193359 C90.16116467 93.68694708 86.98207973 95.96711223 83.58959961 98.19287109 C83.0037207 98.57910645 82.4178418 98.9653418 81.81420898 99.36328125 C78.13737751 101.6545649 75.02167279 102.77394604 70.71459961 103.19287109 C71.17177368 103.96473755 71.17177368 103.96473755 71.63818359 104.75219727 C80.36839002 119.49701149 89.06028158 134.26393944 97.70526123 149.05886841 C99.86792865 152.75656164 102.0492248 156.44262127 104.24194336 160.12255859 C104.76127441 161.00081299 105.28060547 161.87906738 105.81567383 162.78393555 C106.75964899 164.38030383 107.71005908 165.97289238 108.66821289 167.56079102 C110.76241332 171.12175786 111.71459961 172.96921632 111.71459961 177.19287109 C107.69520898 177.41651039 103.67825189 177.57915595 99.65405273 177.68725586 C98.28785105 177.73233276 96.92207931 177.7936228 95.55737305 177.87182617 C84.34125492 178.49812766 84.34125492 178.49812766 80.67456055 175.5559082 C79.05646244 173.18282192 77.89337887 170.81114395 76.71459961 168.19287109 C75.67434177 166.35150473 74.62167737 164.51710612 73.55834961 162.68896484 C72.44069768 160.6711302 71.32624729 158.65151975 70.21459961 156.63037109 C64.77336566 146.81828587 59.20665787 137.09076605 53.50952148 127.42504883 C52.96875977 126.5053833 52.42799805 125.58571777 51.87084961 124.63818359 C51.04520508 123.3044873 51.04520508 123.3044873 50.20288086 121.94384766 C48.71459961 119.19287109 48.71459961 119.19287109 47.82006836 116.09033203 C46.56584271 112.33370829 45.86367483 110.66966543 42.71459961 108.19287109 C34.89122192 106.4842732 26.67282991 106.88040409 18.71459961 107.19287109 C18.71682022 108.05508774 18.71904083 108.91730438 18.72132874 109.8056488 C18.74132956 117.91393145 18.75657267 126.02220587 18.76641178 134.13050747 C18.77164012 138.29949937 18.77873687 142.46847096 18.79003906 146.63745117 C18.80086969 150.65744795 18.80687681 154.67742514 18.80947685 158.69743538 C18.81133079 160.23450085 18.8149508 161.77156519 18.82032967 163.30862236 C18.82754245 165.45422596 18.82859045 167.59974764 18.828125 169.74536133 C18.83034561 170.9689183 18.83256622 172.19247528 18.83485413 173.45310974 C18.71459961 176.19287109 18.71459961 176.19287109 17.71459961 177.19287109 C15.94600768 177.29233562 14.1734851 177.32367327 12.40209961 177.32568359 C11.32702148 177.32697266 10.25194336 177.32826172 9.14428711 177.32958984 C8.01249023 177.32572266 6.88069336 177.32185547 5.71459961 177.31787109 C4.0169043 177.32367187 4.0169043 177.32367187 2.28491211 177.32958984 C1.20983398 177.32830078 0.13475586 177.32701172 -0.97290039 177.32568359 C-1.96676758 177.32455566 -2.96063477 177.32342773 -3.98461914 177.32226562 C-6.28540039 177.19287109 -6.28540039 177.19287109 -7.28540039 176.19287109 C-7.38466088 173.94226051 -7.41172474 171.68846725 -7.41238403 169.43566895 C-7.41394402 168.72089842 -7.41550401 168.0061279 -7.41711128 167.26969767 C-7.42112373 164.8566985 -7.4179307 162.44376143 -7.41479492 160.03076172 C-7.41614885 158.30812035 -7.41792874 156.58547927 -7.42010498 154.86283875 C-7.42468027 150.17082452 -7.42288936 145.47883218 -7.41972589 140.78681755 C-7.41720278 135.88786635 -7.41953969 130.98891709 -7.42111206 126.08996582 C-7.4229339 117.86140607 -7.42052707 109.63285527 -7.41577148 101.40429688 C-7.41032884 91.87660011 -7.41209148 82.34892475 -7.41759789 72.8212285 C-7.42212861 64.6565026 -7.42277977 56.49178316 -7.42015922 48.32705641 C-7.41859622 43.44380816 -7.41840331 38.56056999 -7.42169571 33.67732239 C-7.42457383 29.08751735 -7.42259982 24.49774003 -7.41680145 19.907938 C-7.41547354 18.21839761 -7.4158685 16.5288549 -7.41806412 14.83931541 C-7.4207744 12.54286932 -7.41739603 10.24651349 -7.41238403 7.95007324 C-7.41200701 6.66178368 -7.41162998 5.37349411 -7.41124153 4.04616547 C-7.18305866 -1.12760286 -4.60805442 0.04967173 0 0 Z " fill="#0B0B0B" transform="translate(839.285400390625,412.80712890625)"/>
<path d="M0 0 C4.14581887 -0.02886751 8.29161216 -0.04675327 12.4375 -0.0625 C14.21350586 -0.07506836 14.21350586 -0.07506836 16.02539062 -0.08789062 C17.15009766 -0.09111328 18.27480469 -0.09433594 19.43359375 -0.09765625 C20.47572021 -0.10289307 21.51784668 -0.10812988 22.59155273 -0.11352539 C25 0 25 0 26 1 C26.10158855 2.58199397 26.13352478 4.16850767 26.13803101 5.75375366 C26.14348434 6.78258667 26.14893768 7.81141968 26.15455627 8.87142944 C26.1555986 10.01004425 26.15664093 11.14865906 26.15771484 12.32177734 C26.16533592 14.10965668 26.16533592 14.10965668 26.17311096 15.93365479 C26.18665853 19.21522044 26.19602461 22.49677267 26.20452833 25.77835417 C26.21523804 29.21657195 26.23382596 32.65474287 26.25234985 36.09292603 C26.31427371 47.81077257 26.36814374 59.52861648 26.40136719 71.24658203 C26.41978187 77.71300346 26.44881157 84.17928903 26.4893719 90.64561045 C26.51034494 94.06485468 26.52588509 97.4839283 26.52817917 100.9032402 C26.53311021 104.73045289 26.55632894 108.55716671 26.58349609 112.38427734 C26.58048996 113.50264984 26.57748383 114.62102234 26.5743866 115.77328491 C26.68959349 126.75114753 28.71102306 136.49333515 36 145 C43.52430015 152.2175541 52.53008497 153.47774351 62.61181641 153.42602539 C71.26078734 153.1497096 78.49192139 150.87826455 85 145 C85.66 145 86.32 145 87 145 C87.28875 144.41347656 87.5775 143.82695313 87.875 143.22265625 C88.55371275 141.88172724 89.25560025 140.55170112 90 139.24609375 C95.09117384 130.03822857 95.29741013 119.96502934 95.30297852 109.65966797 C95.31563751 107.88939491 95.31563751 107.88939491 95.32855225 106.08335876 C95.35414672 102.21963052 95.36642306 98.35597829 95.37890625 94.4921875 C95.39391682 91.79743981 95.41213197 89.1027168 95.43040466 86.4079895 C95.47184229 80.06303176 95.50436538 73.71806624 95.53287882 67.37303841 C95.58413349 55.9818668 95.64594898 44.59075994 95.71821922 33.19970238 C95.73906259 29.8592146 95.75736662 26.51874768 95.77020454 23.17821884 C95.78479809 19.46757366 95.8050745 15.75699824 95.82641602 12.04638672 C95.82902939 10.93582413 95.83164276 9.82526154 95.83433533 8.68104553 C95.84123383 7.67745499 95.84813232 6.67386444 95.85523987 5.63986206 C95.86102224 4.32423184 95.86102224 4.32423184 95.86692142 2.98202324 C96 1 96 1 97 0 C98.76859193 -0.09946453 100.54111451 -0.13080217 102.3125 -0.1328125 C103.38757813 -0.13410156 104.46265625 -0.13539063 105.5703125 -0.13671875 C106.70210938 -0.13285156 107.83390625 -0.12898438 109 -0.125 C110.13179688 -0.12886719 111.26359375 -0.13273437 112.4296875 -0.13671875 C113.50476563 -0.13542969 114.57984375 -0.13414062 115.6875 -0.1328125 C116.68136719 -0.13168457 117.67523438 -0.13055664 118.69921875 -0.12939453 C121 0 121 0 122 1 C122.10238869 2.54537962 122.1351945 4.09542141 122.14044189 5.6441803 C122.14615204 6.6489592 122.15186218 7.6537381 122.15774536 8.68896484 C122.15942215 10.357052 122.15942215 10.357052 122.16113281 12.05883789 C122.16858017 13.80540932 122.16858017 13.80540932 122.17617798 15.58726501 C122.18832003 18.79479528 122.19575607 22.00228901 122.20018864 25.20983815 C122.20312003 27.2192502 122.20722545 29.22865654 122.21169281 31.23806572 C122.22539019 37.53960744 122.23504012 43.84113609 122.2388947 50.14269167 C122.2433507 57.38665941 122.26077339 64.63043611 122.2898953 71.87434584 C122.31166475 77.48731231 122.32160739 83.10022574 122.32293582 88.71323389 C122.32397505 92.05726301 122.33117784 95.40097215 122.34775543 98.74498177 C122.45216983 121.44952453 122.27483955 144.67816864 105.81640625 162.34375 C91.68935427 175.9057199 73.77929177 179.58837789 54.78125 179.27734375 C38.37779087 178.61153291 24.27788812 171.9132621 13 160 C2.20245814 146.92929143 -0.32923422 131.4480314 -0.22705078 115.0012207 C-0.22734283 113.75115738 -0.22763489 112.50109406 -0.22793579 111.21315002 C-0.22679 107.8212494 -0.21683415 104.42959923 -0.20278788 101.03774285 C-0.19019401 97.47969329 -0.18910325 93.92163958 -0.18673706 90.36357117 C-0.18054752 83.64195532 -0.1641713 76.92040536 -0.14403808 70.19881839 C-0.12159995 62.53970986 -0.11066585 54.88059802 -0.10064721 47.22146475 C-0.07980251 31.48093849 -0.04467625 15.74047778 0 0 Z " fill="#0D0D0D" transform="translate(211,413)"/>
<path d="M0 0 C2.49714209 2.18114571 4.87251366 4.43119136 7.21875 6.7734375 C7.97671875 7.51980469 8.7346875 8.26617187 9.515625 9.03515625 C28.28062943 28.60899708 33.89966281 52.41209983 33.53515625 78.80859375 C32.73856778 103.55616434 20.86758279 125.39244554 3.44140625 142.5 C-16.7057828 160.353339 -41.40562689 166.09270727 -67.78125 164.7734375 C-91.41238183 162.67492 -111.37789116 151.36007409 -127.78125 134.7734375 C-128.45671875 134.10828125 -129.1321875 133.443125 -129.828125 132.7578125 C-147.09381854 114.54171381 -152.70248337 89.9762195 -152.1328125 65.60546875 C-151.029384 41.11173759 -138.06778689 19.28554949 -120.890625 2.51171875 C-87.30397526 -28.02258669 -34.8419946 -27.89316984 0 0 Z M-121.78125 20.7734375 C-136.17136226 40.12688872 -142.36957848 61.63746474 -139.28515625 85.6328125 C-134.98691796 107.48826144 -123.00873437 125.87358734 -104.94140625 138.7421875 C-84.60156452 151.81600419 -62.3612324 155.6092701 -38.82421875 150.74609375 C-23.68455853 147.28427029 -11.75317702 139.56219378 -0.78125 128.7734375 C-0.08128906 128.08636719 0.61867188 127.39929688 1.33984375 126.69140625 C10.1245574 117.46146345 16.0009519 106.05523125 19.21875 93.7734375 C19.39390137 93.14211914 19.56905273 92.51080078 19.74951172 91.86035156 C25.19469614 70.43906407 20.98720305 48.44701173 10.27880859 29.53613281 C7.68682306 25.22610619 4.61481188 21.46649339 1.21875 17.7734375 C0.52007813 16.99484375 -0.17859375 16.21625 -0.8984375 15.4140625 C-6.24797579 9.74088666 -12.0271507 5.63015417 -18.78125 1.7734375 C-19.52503906 1.32226562 -20.26882813 0.87109375 -21.03515625 0.40625 C-54.265246 -18.20260026 -97.73709995 -7.80573018 -121.78125 20.7734375 Z " fill="#0E0E0F" transform="translate(709.78125,430.2265625)"/>
<path d="M0 0 C1.12019531 -0.00128906 2.24039063 -0.00257813 3.39453125 -0.00390625 C4.57402344 -0.00003906 5.75351563 0.00382812 6.96875 0.0078125 C8.73798828 0.00201172 8.73798828 0.00201172 10.54296875 -0.00390625 C12.22326172 -0.00197266 12.22326172 -0.00197266 13.9375 0 C14.97326172 0.00112793 16.00902344 0.00225586 17.07617188 0.00341797 C19.46875 0.1328125 19.46875 0.1328125 20.46875 1.1328125 C20.56537973 3.0690955 20.59062144 5.00895512 20.58900452 6.94764709 C20.59037918 8.21114487 20.59175385 9.47464264 20.59317017 10.77642822 C20.58963055 12.18957543 20.58599574 13.6027224 20.58227539 15.01586914 C20.58199353 16.49383034 20.58215124 17.97179169 20.5827179 19.44975281 C20.5830059 23.47437078 20.5771087 27.49895922 20.57014394 31.5235703 C20.56391088 35.72497615 20.56330664 39.9263826 20.56211853 44.12779236 C20.55900507 52.08927507 20.55079149 60.05074412 20.54076904 68.0122208 C20.52960836 77.07373839 20.52409757 86.13525662 20.51907361 95.19677937 C20.50860888 113.8421315 20.49100916 132.48747091 20.46875 151.1328125 C21.28085434 151.13059189 22.09295868 151.12837128 22.92967224 151.12608337 C30.56703948 151.10608179 38.2043941 151.09083905 45.84178066 151.08100033 C49.76863658 151.07577219 53.69547094 151.06867581 57.62231445 151.05737305 C61.40889257 151.0465417 65.1954499 151.04053514 68.98204231 151.03793526 C70.42979319 151.03608145 71.87754288 151.03246169 73.32528496 151.02708244 C75.34632135 151.01986883 77.36737848 151.01940442 79.38842773 151.01928711 C80.54092514 151.0170665 81.69342255 151.01484589 82.88084412 151.01255798 C85.46875 151.1328125 85.46875 151.1328125 86.46875 152.1328125 C86.56821453 153.90140443 86.59955217 155.67392701 86.6015625 157.4453125 C86.60285156 158.52039063 86.60414063 159.59546875 86.60546875 160.703125 C86.60160156 161.83492187 86.59773438 162.96671875 86.59375 164.1328125 C86.59761719 165.26460937 86.60148437 166.39640625 86.60546875 167.5625 C86.60417969 168.63757813 86.60289062 169.71265625 86.6015625 170.8203125 C86.60043457 171.81417969 86.59930664 172.80804687 86.59814453 173.83203125 C86.46875 176.1328125 86.46875 176.1328125 85.46875 177.1328125 C82.67960226 177.23865611 79.91508522 177.27959063 77.12524414 177.27807617 C76.25048935 177.28143478 75.37573456 177.2847934 74.47447205 177.28825378 C71.56760254 177.29779378 68.66079045 177.29970841 65.75390625 177.30078125 C63.74230424 177.30399168 61.73070246 177.30735559 59.71910095 177.31086731 C55.49640359 177.3168662 51.27372672 177.31870643 47.05102539 177.31811523 C41.62890603 177.31801356 36.20691747 177.33166771 30.78482914 177.34888744 C26.62852876 177.35998295 22.47226025 177.3620352 18.31594658 177.36150551 C16.31638577 177.36268926 14.31682423 177.36713297 12.31727791 177.37483788 C9.52530776 177.38458864 6.73362475 177.3817793 3.94165039 177.37573242 C2.69244308 177.38416168 2.69244308 177.38416168 1.41799927 177.39276123 C-4.30293466 177.36112784 -4.30293466 177.36112784 -6.53125 175.1328125 C-6.78013897 172.17208767 -6.78013897 172.17208767 -6.77848816 168.2933197 C-6.78090257 167.58177831 -6.78331699 166.87023691 -6.78580457 166.13713366 C-6.79146279 163.74098869 -6.78276264 161.34510781 -6.77416992 158.94897461 C-6.77524227 157.23603747 -6.77718025 155.52310068 -6.77992249 153.81016541 C-6.78478117 149.14917269 -6.7771027 144.4882753 -6.76696944 139.82729411 C-6.75820686 134.95904693 -6.75994603 130.0908029 -6.7603302 125.22254944 C-6.75939282 117.04703163 -6.7506985 108.87155088 -6.73706055 100.69604492 C-6.721329 91.23024117 -6.71606258 81.76447801 -6.7167961 72.29866213 C-6.71740546 63.20892962 -6.71230875 54.11921041 -6.70400429 45.02948189 C-6.70046452 41.15348774 -6.69864005 37.27749829 -6.69811058 33.40150261 C-6.69710944 28.84204804 -6.69103171 24.28262783 -6.68094444 19.72318459 C-6.6780122 18.04493292 -6.67679553 16.36667729 -6.67737198 14.68842316 C-6.67785918 12.40735223 -6.67224164 10.12637903 -6.66496277 7.84532166 C-6.66328692 6.56570525 -6.66161108 5.28608885 -6.65988445 3.96769619 C-6.43706235 -0.94292254 -4.40207079 0.00479379 0 0 Z " fill="#0B0B0B" transform="translate(105.53125,412.8671875)"/>
<path d="M0 0 C4.14581887 -0.02886751 8.29161216 -0.04675327 12.4375 -0.0625 C14.21350586 -0.07506836 14.21350586 -0.07506836 16.02539062 -0.08789062 C17.15009766 -0.09111328 18.27480469 -0.09433594 19.43359375 -0.09765625 C20.47572021 -0.10289307 21.51784668 -0.10812988 22.59155273 -0.11352539 C25 0 25 0 26 1 C26.09706134 3.2529102 26.12186638 5.50893179 26.12025452 7.76393127 C26.12110894 8.47940736 26.12196337 9.19488345 26.12284368 9.93204063 C26.12450058 12.34737814 26.11897371 14.76264733 26.11352539 17.17797852 C26.11324354 18.90224201 26.11340121 20.62650562 26.1139679 22.35076904 C26.11425595 27.04685147 26.10835802 31.74290859 26.10139394 36.43898511 C26.09516164 41.34107159 26.0945567 46.24315858 26.09336853 51.14524841 C26.09025485 60.43482896 26.08204096 69.7243978 26.07201904 79.01397318 C26.06085905 89.5869496 26.05534774 100.15992657 26.05032361 110.73290741 C26.03985838 132.48861149 26.02225823 154.24430501 26 176 C23.45724451 177.27137774 21.65191799 177.129425 18.80859375 177.1328125 C17.78185547 177.13410156 16.75511719 177.13539063 15.69726562 177.13671875 C14.62154297 177.13285156 13.54582031 177.12898437 12.4375 177.125 C11.35791016 177.12886719 10.27832031 177.13273438 9.16601562 177.13671875 C7.6278418 177.13478516 7.6278418 177.13478516 6.05859375 177.1328125 C5.11298584 177.13168457 4.16737793 177.13055664 3.19311523 177.12939453 C1 177 1 177 0 176 C-0.09707611 173.73442613 -0.12186621 171.46575698 -0.12025452 169.19810486 C-0.12110894 168.47854522 -0.12196337 167.75898558 -0.12284368 167.0176211 C-0.1245006 164.5884642 -0.11897368 162.15937523 -0.11352539 159.73022461 C-0.11324354 157.99610903 -0.11340121 156.26199332 -0.1139679 154.52787781 C-0.11425595 149.80493679 -0.10835799 145.08202094 -0.10139394 140.3590858 C-0.09516166 135.4289721 -0.0945567 130.49885788 -0.09336853 125.56874084 C-0.09025484 116.22603638 -0.08204095 106.88334356 -0.07201904 97.54064423 C-0.06085907 86.90720945 -0.05534775 76.27377413 -0.05032361 65.64033496 C-0.03985836 43.7602168 -0.02225819 21.88010913 0 0 Z " fill="#0A0A0A" transform="translate(772,413)"/>
<path d="M0 0 C9.0646875 -0.12375 9.0646875 -0.12375 18.3125 -0.25 C20.19622314 -0.28641602 22.07994629 -0.32283203 24.02075195 -0.36035156 C34.36973427 -0.47603908 42.66077659 0.33733759 51.8125 5.625 C59.18598898 13.63050232 61.34147045 21.28601116 61.2109375 31.9375 C60.67070902 39.78081715 57.60936941 46.46045677 52 52 C44.68966528 57.23793453 39.14820704 59.15317923 30.17578125 59.09765625 C29.41213257 59.09664917 28.64848389 59.09564209 27.86169434 59.09460449 C25.01194759 59.08937664 22.16222227 59.07541536 19.3125 59.0625 C12.939375 59.041875 6.56625 59.02125 0 59 C0 39.53 0 20.06 0 0 Z " fill="#F8F7F7" transform="translate(858,437)"/>
<path d="M0 0 C5.10863896 -0.0246501 10.21724359 -0.04283607 15.32592773 -0.05493164 C17.06519168 -0.05997204 18.80445136 -0.0668043 20.54370117 -0.07543945 C23.03825937 -0.08751792 25.53276173 -0.09323108 28.02734375 -0.09765625 C28.80963852 -0.10281754 29.59193329 -0.10797882 30.39793396 -0.11329651 C32.26567114 -0.11349226 34.13329204 -0.06199694 36 0 C37.89147832 1.89147832 37.13042433 5.20157235 37.13371277 7.71250916 C37.13597833 8.42249056 37.13824388 9.13247196 37.14057809 9.86396796 C37.14694605 12.26080928 37.14608695 14.65759447 37.14526367 17.05444336 C37.14825342 18.76561049 37.15165552 20.47677695 37.15544128 22.1879425 C37.16430417 26.84902954 37.16662035 31.51009824 37.16725707 36.17119288 C37.16820424 40.05562459 37.17188031 43.94005197 37.17542917 47.82448202 C37.18358239 56.98512239 37.18601261 66.14575291 37.18530273 75.30639648 C37.18470168 84.77160574 37.19525705 94.23675804 37.2110464 103.70195287 C37.22410017 111.81489104 37.22948755 119.92781055 37.22884732 128.04075915 C37.2285917 132.89219795 37.23147808 137.74358618 37.24202538 142.59501457 C37.2516701 147.1561173 37.25181062 151.71712073 37.24450874 156.27822685 C37.24345837 157.95606124 37.2458524 159.63390169 37.2518692 161.31172562 C37.2595286 163.59477154 37.25498501 165.87746936 37.24723816 168.1605072 C37.24778293 169.44050063 37.24832769 170.72049406 37.24888897 172.03927517 C37 175 37 175 35 177 C32.67749023 177.24291992 32.67749023 177.24291992 29.80859375 177.23046875 C28.78185547 177.22853516 27.75511719 177.22660156 26.69726562 177.22460938 C25.62154297 177.21236328 24.54582031 177.20011719 23.4375 177.1875 C22.35791016 177.18685547 21.27832031 177.18621094 20.16601562 177.18554688 C12.14014598 177.14014598 12.14014598 177.14014598 11 176 C10.90365541 174.22839682 10.87812519 172.45291592 10.87974548 170.67869568 C10.87837082 169.52458191 10.87699615 168.37046814 10.87557983 167.18138123 C10.87917511 165.90392532 10.88277039 164.62646942 10.88647461 163.31030273 C10.88675648 161.96041872 10.88659875 160.61053456 10.8860321 159.26065063 C10.88574413 155.58519392 10.89164084 151.90976957 10.89860606 148.2343204 C10.90483962 144.39726851 10.9054434 140.56021596 10.90663147 136.72315979 C10.90974478 129.45228782 10.91795817 122.18143081 10.92798096 114.91056544 C10.9391421 106.63500648 10.94465255 98.35944682 10.94967639 90.08388221 C10.96014078 73.05591281 10.97774022 56.02795798 11 39 C11.66 39 12.32 39 13 39 C13 83.55 13 128.1 13 174 C19.93 174 26.86 174 34 174 C33.99777939 171.8621402 33.99555878 169.7242804 33.99327087 167.52163696 C33.97286615 147.42000357 33.95796816 127.31837153 33.94818783 107.21673012 C33.94302574 96.88113624 33.93598468 86.54554995 33.92456055 76.20996094 C33.91461107 67.20424468 33.90814594 58.19853392 33.90591151 49.19281232 C33.90460485 44.42185561 33.90152182 39.65091461 33.89426994 34.87996292 C33.88750559 30.39359013 33.88538389 25.9072396 33.88689232 21.4208622 C33.88661618 19.77044237 33.88461351 18.12002183 33.88079453 16.4696064 C33.87585081 14.22381995 33.87700424 11.97811857 33.87974548 9.73233032 C33.87882369 8.47316111 33.8779019 7.21399189 33.87695217 5.91666603 C34 3 34 3 35 1 C23.12 1.33 11.24 1.66 -1 2 C-0.67 1.34 -0.34 0.68 0 0 Z " fill="#131313" transform="translate(495,413)"/>
<path d="M0 0 C1.12019531 -0.00128906 2.24039063 -0.00257813 3.39453125 -0.00390625 C4.57402344 -0.00003906 5.75351563 0.00382812 6.96875 0.0078125 C8.73798828 0.00201172 8.73798828 0.00201172 10.54296875 -0.00390625 C12.22326172 -0.00197266 12.22326172 -0.00197266 13.9375 0 C14.97326172 0.00112793 16.00902344 0.00225586 17.07617188 0.00341797 C19.46875 0.1328125 19.46875 0.1328125 20.46875 1.1328125 C20.56537973 3.0690955 20.59062144 5.00895512 20.58900452 6.94764709 C20.59037918 8.21114487 20.59175385 9.47464264 20.59317017 10.77642822 C20.58963055 12.18957543 20.58599574 13.6027224 20.58227539 15.01586914 C20.58199353 16.49383034 20.58215124 17.97179169 20.5827179 19.44975281 C20.5830059 23.47437078 20.5771087 27.49895922 20.57014394 31.5235703 C20.56391088 35.72497615 20.56330664 39.9263826 20.56211853 44.12779236 C20.55900507 52.08927507 20.55079149 60.05074412 20.54076904 68.0122208 C20.52960836 77.07373839 20.52409757 86.13525662 20.51907361 95.19677937 C20.50860888 113.8421315 20.49100916 132.48747091 20.46875 151.1328125 C21.28085434 151.13059189 22.09295868 151.12837128 22.92967224 151.12608337 C30.56703948 151.10608179 38.2043941 151.09083905 45.84178066 151.08100033 C49.76863658 151.07577219 53.69547094 151.06867581 57.62231445 151.05737305 C61.40889257 151.0465417 65.1954499 151.04053514 68.98204231 151.03793526 C70.42979319 151.03608145 71.87754288 151.03246169 73.32528496 151.02708244 C75.34632135 151.01986883 77.36737848 151.01940442 79.38842773 151.01928711 C80.54092514 151.0170665 81.69342255 151.01484589 82.88084412 151.01255798 C85.46875 151.1328125 85.46875 151.1328125 86.46875 152.1328125 C86.56821453 153.90140443 86.59955217 155.67392701 86.6015625 157.4453125 C86.60285156 158.52039063 86.60414063 159.59546875 86.60546875 160.703125 C86.60160156 161.83492187 86.59773438 162.96671875 86.59375 164.1328125 C86.59761719 165.26460937 86.60148437 166.39640625 86.60546875 167.5625 C86.60417969 168.63757813 86.60289062 169.71265625 86.6015625 170.8203125 C86.60043457 171.81417969 86.59930664 172.80804687 86.59814453 173.83203125 C86.46875 176.1328125 86.46875 176.1328125 85.46875 177.1328125 C82.6688528 177.22800618 79.89368826 177.25835194 77.09350586 177.24633789 C75.77655479 177.24655693 75.77655479 177.24655693 74.43299866 177.2467804 C71.51650565 177.24608094 68.60007567 177.23828705 65.68359375 177.23046875 C63.66720108 177.22860468 61.65080796 177.22718073 59.63441467 177.22618103 C54.31609862 177.22235494 48.9978097 177.21252389 43.67950439 177.20147705 C38.25704312 177.19126488 32.83457748 177.18668383 27.41210938 177.18164062 C16.76431097 177.1709017 6.11653274 177.15382419 -4.53125 177.1328125 C-4.53125 176.8028125 -4.53125 176.4728125 -4.53125 176.1328125 C24.83875 175.8028125 54.20875 175.4728125 84.46875 175.1328125 C84.79875 167.8728125 85.12875 160.6128125 85.46875 153.1328125 C83.47465088 153.13804932 81.48055176 153.14328613 79.42602539 153.14868164 C72.85220943 153.16477873 66.27839812 153.17628453 59.70456791 153.18462467 C55.717178 153.18985286 51.72980933 153.19694934 47.74243164 153.20825195 C43.89749886 153.21908311 40.05258655 153.22508982 36.20763969 153.22768974 C34.73756017 153.22954358 33.26748182 153.23316341 31.79741096 153.23854256 C29.74520533 153.24575605 27.69308533 153.24680331 25.64086914 153.24633789 C24.47060684 153.2485585 23.30034454 153.25077911 22.09461975 153.25306702 C19.46875 153.1328125 19.46875 153.1328125 18.46875 152.1328125 C18.37210033 150.18386291 18.34687879 148.23135795 18.34849548 146.28001404 C18.34712082 145.00810211 18.34574615 143.73619019 18.34432983 142.42573547 C18.34786945 141.00314308 18.35150427 139.58055092 18.35522461 138.15795898 C18.35550647 136.67014569 18.35534876 135.18233226 18.3547821 133.69451904 C18.3544941 129.6430425 18.36039133 125.5915953 18.36735606 121.54012561 C18.37358908 117.31069253 18.37419336 113.08125886 18.37538147 108.8518219 C18.37849494 100.83721528 18.38670854 92.82262223 18.39673096 84.80802161 C18.40789161 75.68604566 18.41340242 66.56406908 18.41842639 57.44208801 C18.42889114 38.67232159 18.4466913 19.90256863 18.46875 1.1328125 C10.87875 1.1328125 3.28875 1.1328125 -4.53125 1.1328125 C-4.86125 25.2228125 -5.19125 49.3128125 -5.53125 74.1328125 C-5.86125 74.1328125 -6.19125 74.1328125 -6.53125 74.1328125 C-6.55437484 64.63206925 -6.5721658 55.13133562 -6.58306217 45.63057041 C-6.58829069 41.21944246 -6.59538777 36.8083337 -6.60668945 32.3972168 C-6.61751944 28.14380135 -6.62352707 23.89040441 -6.62612724 19.63697624 C-6.62798129 18.01059617 -6.63160152 16.38421716 -6.63698006 14.75784492 C-6.64419198 12.48771057 -6.64524088 10.21765365 -6.64477539 7.94750977 C-6.646996 6.65289322 -6.64921661 5.35827667 -6.65150452 4.02442932 C-6.44509843 -0.93877137 -4.45493823 0.00485136 0 0 Z " fill="#2A292A" transform="translate(105.53125,412.8671875)"/>
<path d="M0 0 C1.15249741 0.00222061 2.30499481 0.00444122 3.49241638 0.00672913 C5.4443264 0.00684242 5.4443264 0.00684242 7.43566895 0.00695801 C8.86661313 0.01206543 10.29755694 0.01728144 11.72850037 0.02259827 C13.18438672 0.02446249 14.64027369 0.02588637 16.09616089 0.02688599 C19.93488791 0.03071086 23.77357731 0.04054088 27.61228943 0.05158997 C31.52667227 0.06180474 35.44106117 0.06638375 39.35545349 0.07142639 C47.04101755 0.08216318 54.72655057 0.09923923 62.41209412 0.12025452 C62.41209412 0.45025452 62.41209412 0.78025452 62.41209412 1.12025452 C41.29209412 1.12025452 20.17209412 1.12025452 -1.58790588 1.12025452 C-1.58790588 58.54025452 -1.58790588 115.96025452 -1.58790588 175.12025452 C6.00209412 175.12025452 13.59209412 175.12025452 21.41209412 175.12025452 C21.41209412 175.78025452 21.41209412 176.44025452 21.41209412 177.12025452 C17.43294253 177.14912435 13.45381758 177.16700858 9.47459412 177.18275452 C8.33828552 177.19113342 7.20197693 177.19951233 6.03123474 177.20814514 C4.9516449 177.2113678 3.87205505 177.21459045 2.75975037 177.21791077 C1.75951843 177.22314758 0.7592865 177.2283844 -0.27125549 177.23377991 C-2.58790588 177.12025452 -2.58790588 177.12025452 -3.58790588 176.12025452 C-3.68716638 173.86964393 -3.71423023 171.61585067 -3.71488953 169.36305237 C-3.71644952 168.64828185 -3.71800951 167.93351132 -3.71961677 167.19708109 C-3.72362922 164.78408193 -3.72043619 162.37114485 -3.71730042 159.95814514 C-3.71865435 158.23550377 -3.72043423 156.51286269 -3.72261047 154.79022217 C-3.72718576 150.09820794 -3.72539486 145.4062156 -3.72223139 140.71420097 C-3.71970828 135.81524977 -3.72204519 130.91630051 -3.72361755 126.01734924 C-3.72543939 117.78878949 -3.72303256 109.56023869 -3.71827698 101.3316803 C-3.71283433 91.80398354 -3.71459698 82.27630817 -3.72010338 72.74861193 C-3.7246341 64.58388603 -3.72528526 56.41916658 -3.72266471 48.25443983 C-3.72110171 43.37119159 -3.7209088 38.48795342 -3.7242012 33.60470581 C-3.72707932 29.01490077 -3.72510532 24.42512345 -3.71930695 19.83532143 C-3.71797903 18.14578103 -3.71837399 16.45623833 -3.72056961 14.76669884 C-3.72327989 12.47025275 -3.71990152 10.17389692 -3.71488953 7.87745667 C-3.7145125 6.5891671 -3.71413548 5.30087753 -3.71374702 3.97354889 C-3.54576512 0.16476421 -3.54576512 0.16476421 0 0 Z " fill="#050505" transform="translate(835.5879058837891,412.87974548339844)"/>
<path d="M0 0 C7.59 0 15.18 0 23 0 C23 0.33 23 0.66 23 1 C15.74 1 8.48 1 1 1 C1 57.76 1 114.52 1 173 C8.26 173 15.52 173 23 173 C23.33 159.14 23.66 145.28 24 131 C24.33 131 24.66 131 25 131 C25 145.52 25 160.04 25 175 C17.54047961 178.72976019 8.33999734 176 0 176 C0 117.92 0 59.84 0 0 Z " fill="#181819" transform="translate(773,414)"/>
<path d="M0 0 C-1.45579378 3.1482437 -3.24658475 5.78198879 -5.3125 8.5625 C-10.48151802 15.87005146 -13.89603411 23.66600807 -16.12890625 32.3203125 C-16.56009766 33.15175781 -16.56009766 33.15175781 -17 34 C-19.02734375 34.6171875 -19.02734375 34.6171875 -21 35 C-21.33 35.66 -21.66 36.32 -22 37 C-22.33 36.67 -22.66 36.34 -23 36 C-22.5915409 23.5419974 -16.30455316 10.7850419 -8.51953125 1.171875 C-5.93672537 -0.82000614 -3.12302933 -0.17677525 0 0 Z " fill="#EAF2F5" transform="translate(595,452)"/>
<path d="M0 0 C0 0.99 0 1.98 0 3 C-7.30613589 4.91636351 -14.55091802 5.2461782 -22.0625 5.3125 C-23.47341919 5.33860352 -23.47341919 5.33860352 -24.9128418 5.36523438 C-25.79883057 5.36458984 -26.68481934 5.36394531 -27.59765625 5.36328125 C-28.79660522 5.36775269 -28.79660522 5.36775269 -30.01977539 5.37231445 C-30.99998657 5.1880188 -30.99998657 5.1880188 -32 5 C-32.66 4.01 -33.32 3.02 -34 2 C-33.2793335 2.01047363 -32.55866699 2.02094727 -31.81616211 2.03173828 C-28.52331079 2.07353715 -25.2305155 2.09940188 -21.9375 2.125 C-20.80376953 2.14175781 -19.67003906 2.15851562 -18.50195312 2.17578125 C-12.1195466 2.21299645 -6.04907106 0 0 0 Z " fill="#151515" transform="translate(674,590)"/>
<path d="M0 0 C5.05369645 -0.04948633 10.10725142 -0.08576045 15.16113281 -0.10986328 C16.87990781 -0.1199127 18.59866575 -0.13355445 20.31738281 -0.15087891 C22.78975641 -0.17517391 25.26190369 -0.18649368 27.734375 -0.1953125 C28.50118591 -0.20563507 29.26799683 -0.21595764 30.05804443 -0.22659302 C33.85956767 -0.22739012 36.77864518 -0.14509572 40 2 C36.1784462 3.27385127 32.5931553 3.12353188 28.61328125 3.09765625 C27.79627243 3.0962413 26.97926361 3.09482635 26.13749695 3.09336853 C23.52912732 3.08777294 20.92084366 3.07522129 18.3125 3.0625 C16.54362103 3.05748443 14.77474072 3.05292162 13.00585938 3.04882812 C8.67053981 3.03780496 4.33528448 3.02054338 0 3 C0 2.01 0 1.02 0 0 Z " fill="#3F3F3F" transform="translate(858,496)"/>
<path d="M0 0 C7.92 0 15.84 0 24 0 C24 0.99 24 1.98 24 3 C16.74 2.67 9.48 2.34 2 2 C2 6.62 2 11.24 2 16 C1.67 16 1.34 16 1 16 C0.67 10.72 0.34 5.44 0 0 Z " fill="#D4D4D4" transform="translate(858,520)"/>
<path d="M0 0 C6.2921329 -0.56179758 11.40734383 0.46475975 17.375 2.3125 C18.07689453 2.52543701 18.77878906 2.73837402 19.50195312 2.95776367 C22.99371139 4.09005485 25.7195019 5.03187079 28 8 C24.54920717 7.57917161 21.872473 6.94225193 18.6875 5.5 C14.41051949 3.76021132 10.56944245 3.30048488 6 3 C6 2.34 6 1.68 6 1 C3.69 1.33 1.38 1.66 -1 2 C-0.67 1.34 -0.34 0.68 0 0 Z " fill="#F3F5F6" transform="translate(658,423)"/>
<path d="M0 0 C2.30039124 3.45058686 2.4738275 5.94095502 3 10 C3.33 10.33 3.66 10.66 4 11 C4.07271741 13.35313555 4.08370868 15.70833668 4.0625 18.0625 C4.05347656 19.35285156 4.04445313 20.64320313 4.03515625 21.97265625 C4.02355469 22.97167969 4.01195312 23.97070312 4 25 C1.8647772 23.28237607 1.06913046 22.3773485 0.56762695 19.63989258 C0.54144287 18.73392334 0.51525879 17.8279541 0.48828125 16.89453125 C0.45283203 15.91162109 0.41738281 14.92871094 0.38085938 13.91601562 C0.35830078 12.89185547 0.33574219 11.86769531 0.3125 10.8125 C0.27833984 9.77673828 0.24417969 8.74097656 0.20898438 7.67382812 C0.12647358 5.1159934 0.05733428 2.55850277 0 0 Z " fill="#141516" transform="translate(730,484)"/>
<path d="M0 0 C-1.60558484 1.92536938 -2.47769478 2.91074167 -4.99291992 3.34057617 C-5.73131104 3.32486572 -6.46970215 3.30915527 -7.23046875 3.29296875 C-8.03291016 3.28330078 -8.83535156 3.27363281 -9.66210938 3.26367188 C-10.49548828 3.23853516 -11.32886719 3.21339844 -12.1875 3.1875 C-13.03248047 3.17396484 -13.87746094 3.16042969 -14.74804688 3.14648438 C-16.83230384 3.11115799 -18.91623277 3.05735139 -21 3 C-21 2.67 -21 2.34 -21 2 C-13.90673679 0.27669093 -7.29031024 -0.2494783 0 0 Z " fill="#151515" transform="translate(282,589)"/>
<path d="M0 0 C0 0.33 0 0.66 0 1 C2.475 1.495 2.475 1.495 5 2 C5 2.33 5 2.66 5 3 C2.62492145 3.02719556 0.25016036 3.04693247 -2.125 3.0625 C-3.12273438 3.07506836 -3.12273438 3.07506836 -4.140625 3.08789062 C-8.20681354 3.10782292 -12.0120092 2.78890161 -16 2 C-16 1.67 -16 1.34 -16 1 C-10.59255982 0.22750855 -5.46137814 -0.09752461 0 0 Z " fill="#1C1B1B" transform="translate(648,410)"/>
<path d="M0 0 C0 0.66 0 1.32 0 2 C-9.41002278 7.37129841 -9.41002278 7.37129841 -14 9 C-12.68786941 5.06360824 -11.17198478 4.71346403 -7.5625 2.8125 C-6.07943359 2.01779297 -6.07943359 2.01779297 -4.56640625 1.20703125 C-2 0 -2 0 0 0 Z " fill="#F2F5F7" transform="translate(619,429)"/>
<path d="M0 0 C0.33 1.32 0.66 2.64 1 4 C0.01 4.33 -0.98 4.66 -2 5 C-2 5.66 -2 6.32 -2 7 C-2.5775 7.0825 -3.155 7.165 -3.75 7.25 C-6.6159304 8.20531013 -7.9990764 9.78469173 -10 12 C-8.6957672 8.0873016 -7.21065261 5.62689759 -4 3 C-3.01 3 -2.02 3 -1 3 C-0.67 2.01 -0.34 1.02 0 0 Z " fill="#E6F0F5" transform="translate(725,529)"/>
<path d="M0 0 C0.33 0 0.66 0 1 0 C1.27714844 1.04800781 1.55429687 2.09601562 1.83984375 3.17578125 C2.20567952 4.55470067 2.57156767 5.9336062 2.9375 7.3125 C3.11990234 8.00279297 3.30230469 8.69308594 3.49023438 9.40429688 C4.2593261 12.29887844 5.05261576 15.15784729 6 18 C5.01 17.67 4.02 17.34 3 17 C0.7500329 12.4327591 -0.50795887 7.0434216 -1 2 C-0.67 1.34 -0.34 0.68 0 0 Z " fill="#EEEFEF" transform="translate(559,520)"/>
<path d="M0 0 C0.99 0 1.98 0 3 0 C6 5.75 6 5.75 6 8 C5.01 8 4.02 8 3 8 C0 2.25 0 2.25 0 0 Z " fill="#181819" transform="translate(565,538)"/>
<path d="M0 0 C0.33 0 0.66 0 1 0 C1.125 3.375 1.125 3.375 1 7 C-1 9 -1 9 -4 10 C-2.8905928 6.51329166 -1.73662334 3.22515763 0 0 Z " fill="#EFEFF0" transform="translate(504,454)"/>
<path d="M0 0 C0 0.99 0 1.98 0 3 C-3.375 3.125 -3.375 3.125 -7 3 C-7.66 2.34 -8.32 1.68 -9 1 C-6.04335481 -0.4783226 -3.25770263 -0.06032783 0 0 Z " fill="#E0E2E4" transform="translate(646,422)"/>
<path d="M0 0 C5.75 1.875 5.75 1.875 8 3 C8 3.99 8 4.98 8 6 C5.0280615 4.87548273 2.66559313 3.77706209 0 2 C0 1.34 0 0.68 0 0 Z " fill="#191919" transform="translate(687,417)"/>
<path d="M0 0 C1.37478516 0.01740234 1.37478516 0.01740234 2.77734375 0.03515625 C3.69644531 0.04417969 4.61554687 0.05320312 5.5625 0.0625 C6.27277344 0.07410156 6.98304688 0.08570313 7.71484375 0.09765625 C2.54150806 2.73292537 2.54150806 2.73292537 -0.28515625 3.09765625 C-1.27515625 2.43765625 -2.26515625 1.77765625 -3.28515625 1.09765625 C-2.28515625 0.09765625 -2.28515625 0.09765625 0 0 Z " fill="#E4E5E6" transform="translate(654.28515625,421.90234375)"/>
<path d="M0 0 C0.33 0 0.66 0 1 0 C1.33 3.3 1.66 6.6 2 10 C1.01 9.34 0.02 8.68 -1 8 C-0.67 5.36 -0.34 2.72 0 0 Z " fill="#191A1C" transform="translate(570,512)"/>
</svg>
